<svg xmlns="http://www.w3.org/2000/svg" width="375" viewBox="0 0 375 375" height="375" version="1.0"><path fill="#FFF" d="M-37.5 -37.5H412.5V412.5H-37.5z"/><path fill="#FFF" d="M-37.5 -37.5H412.5V412.5H-37.5z"/><path fill="#E6E7ED" d="M-37.5 -37.5H412.5V412.5H-37.5z"/><g><g><g><path d="M 84.1875 -71.484375 C 85.957031 -68.335938 87.21875 -65.472656 87.96875 -62.890625 C 88.71875 -60.316406 89.253906 -57.675781 89.578125 -54.96875 C 90.171875 -49.851562 90.140625 -44.804688 89.484375 -39.828125 C 88.828125 -34.847656 87.703125 -29.941406 86.109375 -25.109375 C 83.296875 -16.484375 79.234375 -8.597656 73.921875 -1.453125 C 68.609375 5.679688 62.1875 12.179688 54.65625 18.046875 C 48.96875 22.503906 42.851562 26.4375 36.3125 29.84375 C 35.582031 30.195312 34.96875 30.597656 34.46875 31.046875 C 33.976562 31.503906 33.78125 32.128906 33.875 32.921875 C 33.875 33.515625 33.578125 33.992188 32.984375 34.359375 C 32.585938 34.585938 32.195312 34.691406 31.8125 34.671875 C 31.4375 34.660156 31.148438 34.472656 30.953125 34.109375 C 30.710938 33.609375 30.441406 33.316406 30.140625 33.234375 C 29.847656 33.148438 29.441406 33.226562 28.921875 33.46875 C 27.859375 33.957031 26.785156 34.414062 25.703125 34.84375 C 24.078125 35.507812 21.972656 36.140625 19.390625 36.734375 C 16.816406 37.328125 14.914062 37.507812 13.6875 37.28125 C 12.53125 37.039062 11.742188 36.539062 11.328125 35.78125 C 10.921875 35.03125 10.929688 34.175781 11.359375 33.21875 C 12.117188 31.757812 13.175781 30.5 14.53125 29.4375 C 17.300781 27.09375 20.359375 25.023438 23.703125 23.234375 C 25.628906 22.117188 27.613281 21.082031 29.65625 20.125 C 30.914062 19.582031 31.546875 18.691406 31.546875 17.453125 C 31.546875 16.222656 31.582031 14.992188 31.65625 13.765625 C 31.707031 12.816406 31.75 11.863281 31.78125 10.90625 C 31.894531 0.3125 32.015625 -10.273438 32.140625 -20.859375 C 32.171875 -24.878906 32.171875 -28.910156 32.140625 -32.953125 C 32.171875 -36.285156 31.8125 -39.59375 31.0625 -42.875 C 30.863281 -43.5625 30.789062 -44.257812 30.84375 -44.96875 C 30.945312 -45.5625 31.378906 -45.921875 32.140625 -46.046875 C 32.859375 -46.171875 33.414062 -45.953125 33.8125 -45.390625 C 34.445312 -44.242188 34.878906 -43.035156 35.109375 -41.765625 C 35.867188 -37.640625 36.1875 -33.492188 36.0625 -29.328125 C 35.894531 -17.859375 35.675781 -6.367188 35.40625 5.140625 C 35.375 7.523438 35.273438 9.890625 35.109375 12.234375 C 35.035156 13.296875 34.972656 14.382812 34.921875 15.5 C 34.921875 15.570312 34.921875 15.65625 34.921875 15.75 C 34.890625 15.976562 34.894531 16.207031 34.9375 16.4375 C 34.976562 16.675781 35.117188 16.894531 35.359375 17.09375 C 35.660156 17.1875 35.960938 17.179688 36.265625 17.078125 C 36.566406 16.984375 36.84375 16.875 37.09375 16.75 C 37.238281 16.707031 37.375 16.644531 37.5 16.5625 C 44.207031 13.832031 51.132812 11.613281 58.28125 9.90625 C 59.820312 9.539062 61.0625 8.804688 62 7.703125 C 68.25 1.234375 73.628906 -6.53125 78.140625 -15.59375 C 82.660156 -24.65625 85.117188 -34.582031 85.515625 -45.375 C 85.910156 -56.175781 83.441406 -65.15625 78.109375 -72.3125 C 72.785156 -79.476562 65.535156 -83.398438 56.359375 -84.078125 C 51.328125 -84.441406 45.425781 -83.757812 38.65625 -82.03125 C 31.894531 -80.300781 25.039062 -77.390625 18.09375 -73.296875 C 11.15625 -69.210938 5.117188 -65.019531 -0.015625 -60.71875 C -5.160156 -56.414062 -9.664062 -51.472656 -13.53125 -45.890625 C -17.40625 -40.316406 -20.054688 -35.328125 -21.484375 -30.921875 C -22.078125 -28.703125 -22.175781 -26.4375 -21.78125 -24.125 C -21.664062 -23.332031 -21.394531 -22.628906 -20.96875 -22.015625 C -20.550781 -21.410156 -19.910156 -20.90625 -19.046875 -20.5 C -18.523438 -20.269531 -18.285156 -19.988281 -18.328125 -19.65625 C -18.367188 -19.320312 -18.644531 -19.03125 -19.15625 -18.78125 C -20.988281 -18.039062 -22.519531 -18.363281 -23.75 -19.75 C -24.851562 -21.082031 -25.46875 -22.585938 -25.59375 -24.265625 C -25.820312 -26.953125 -25.503906 -29.550781 -24.640625 -32.0625 C -22.171875 -39.957031 -18.140625 -47.132812 -12.546875 -53.59375 C -7.285156 -59.664062 -1.367188 -65.050781 5.203125 -69.75 C 11.773438 -74.457031 19.066406 -78.394531 27.078125 -81.5625 C 31.609375 -83.351562 36.257812 -84.71875 41.03125 -85.65625 C 45.8125 -86.59375 50.765625 -86.976562 55.890625 -86.8125 C 58.671875 -86.738281 61.40625 -86.40625 64.09375 -85.8125 C 68.976562 -84.726562 73.109375 -82.851562 76.484375 -80.1875 C 79.859375 -77.53125 82.425781 -74.628906 84.1875 -71.484375 Z M 30.546875 27.265625 C 30.578125 26.171875 30.59375 25.0625 30.59375 23.9375 C 30.59375 23.539062 30.582031 23.21875 30.5625 22.96875 C 30.550781 22.71875 30.453125 22.566406 30.265625 22.515625 C 30.085938 22.472656 29.921875 22.5 29.765625 22.59375 C 27.742188 23.53125 25.789062 24.566406 23.90625 25.703125 C 22.019531 26.835938 20.265625 28.117188 18.640625 29.546875 C 17.953125 30.171875 17.375 30.863281 16.90625 31.625 C 16.675781 32.019531 16.664062 32.375 16.875 32.6875 C 17.09375 33.007812 17.457031 33.210938 17.96875 33.296875 C 19.113281 33.492188 20.203125 33.429688 21.234375 33.109375 C 23.347656 32.441406 25.457031 31.710938 27.5625 30.921875 C 27.5625 30.867188 27.582031 30.84375 27.625 30.84375 C 28.125 30.644531 28.632812 30.410156 29.15625 30.140625 C 29.320312 30.066406 29.457031 29.984375 29.5625 29.890625 C 30.09375 29.617188 30.394531 29.222656 30.46875 28.703125 C 30.519531 28.234375 30.546875 27.753906 30.546875 27.265625 Z M 44.28125 21.8125 C 47.65625 19.75 50.847656 17.566406 53.859375 15.265625 C 54.859375 14.535156 55.488281 13.945312 55.75 13.5 C 56.007812 13.050781 55.90625 12.875 55.4375 12.96875 C 54.976562 13.070312 54.335938 13.238281 53.515625 13.46875 C 47.992188 15.1875 42.0625 17.390625 35.71875 20.078125 C 35.1875 20.273438 34.882812 20.550781 34.8125 20.90625 C 34.34375 23.320312 34.175781 24.96875 34.3125 25.84375 C 34.445312 26.71875 34.796875 27.046875 35.359375 26.828125 C 35.921875 26.617188 36.921875 26.09375 38.359375 25.25 C 39.804688 24.414062 41.78125 23.269531 44.28125 21.8125 Z M 44.28125 21.8125" transform="translate(103.029 211.786)"/></g></g></g><g><g><g><path d="M 39.984375 -15.640625 C 40.304688 -16.066406 40.648438 -16.378906 41.015625 -16.578125 C 41.378906 -16.773438 41.59375 -16.773438 41.65625 -16.578125 C 41.726562 -16.378906 41.53125 -15.90625 41.0625 -15.15625 C 40 -13.5625 38.4375 -12.050781 36.375 -10.625 C 34.3125 -9.207031 32.03125 -7.992188 29.53125 -6.984375 C 27.03125 -5.972656 24.585938 -5.300781 22.203125 -4.96875 C 19.828125 -4.644531 17.8125 -4.800781 16.15625 -5.4375 C 14.507812 -6.082031 13.488281 -7.335938 13.09375 -9.203125 C 11.707031 -6.941406 10.0625 -5.175781 8.15625 -3.90625 C 6.25 -2.632812 4.441406 -2.097656 2.734375 -2.296875 C 0.785156 -2.566406 -0.507812 -3.296875 -1.15625 -4.484375 C -1.8125 -5.679688 -2.03125 -7.054688 -1.8125 -8.609375 C -1.59375 -10.160156 -1.125 -11.628906 -0.40625 -13.015625 C 0.132812 -14.078125 0.898438 -15.066406 1.890625 -15.984375 C 2.878906 -16.910156 3.914062 -17.625 5 -18.125 C 6.351562 -18.8125 7.710938 -19.125 9.078125 -19.0625 C 10.441406 -19 11.898438 -18.550781 13.453125 -17.71875 C 13.453125 -17.71875 13.46875 -17.753906 13.5 -17.828125 C 13.5 -17.992188 13.53125 -18.179688 13.59375 -18.390625 C 13.65625 -18.609375 13.785156 -18.800781 13.984375 -18.96875 C 14.253906 -19.164062 14.601562 -19.320312 15.03125 -19.4375 C 15.457031 -19.550781 15.867188 -19.570312 16.265625 -19.5 C 16.890625 -19.375 17.28125 -19.054688 17.4375 -18.546875 C 17.59375 -18.035156 17.617188 -17.472656 17.515625 -16.859375 C 17.421875 -16.242188 17.316406 -15.71875 17.203125 -15.28125 C 17.171875 -15.195312 17.15625 -15.117188 17.15625 -15.046875 C 16.5 -12.429688 16.726562 -10.59375 17.84375 -9.53125 C 18.96875 -8.476562 20.585938 -7.992188 22.703125 -8.078125 C 24.828125 -8.160156 27.078125 -8.601562 29.453125 -9.40625 C 31.835938 -10.21875 34.003906 -11.1875 35.953125 -12.3125 C 37.898438 -13.445312 39.242188 -14.554688 39.984375 -15.640625 Z M 3.515625 -5.8125 C 4.347656 -5.257812 5.238281 -5.316406 6.1875 -5.984375 C 7.144531 -6.660156 8.078125 -7.632812 8.984375 -8.90625 C 9.898438 -10.1875 10.65625 -11.457031 11.25 -12.71875 C 11.84375 -13.976562 12.175781 -14.929688 12.25 -15.578125 C 10.363281 -16.609375 8.742188 -16.796875 7.390625 -16.140625 C 6.035156 -15.484375 4.976562 -14.429688 4.21875 -12.984375 C 3.457031 -11.546875 3.019531 -10.117188 2.90625 -8.703125 C 2.789062 -7.285156 2.992188 -6.320312 3.515625 -5.8125 Z M 3.515625 -5.8125" transform="translate(191.693 211.786)"/></g></g></g><g><g><g><path d="M 13.28125 -31.40625 C 13.519531 -31.375 13.675781 -31.207031 13.75 -30.90625 C 13.832031 -30.613281 13.832031 -30.300781 13.75 -29.96875 C 13.675781 -29.644531 13.519531 -29.484375 13.28125 -29.484375 L 4.546875 -29.5625 L 4.546875 -29.328125 C 4.503906 -28.046875 4.421875 -26.515625 4.296875 -24.734375 C 4.097656 -20.960938 4 -17.132812 4 -13.25 C 4 -11.9375 4.085938 -10.117188 4.265625 -7.796875 C 4.453125 -5.484375 4.828125 -3.414062 5.390625 -1.59375 C 5.421875 -1.46875 5.535156 -1.242188 5.734375 -0.921875 C 5.972656 -0.523438 6.195312 -0.0820312 6.40625 0.40625 C 6.625 0.90625 6.722656 1.3125 6.703125 1.625 C 6.691406 1.945312 6.453125 2.046875 5.984375 1.921875 C 4.429688 1.410156 3.25 0.175781 2.4375 -1.78125 C 1.625 -3.75 1.046875 -6.046875 0.703125 -8.671875 C 0.359375 -11.296875 0.175781 -13.851562 0.15625 -16.34375 C 0.144531 -18.84375 0.175781 -20.867188 0.25 -22.421875 C 0.300781 -23.492188 0.34375 -24.5625 0.375 -25.625 C 0.414062 -26.976562 0.453125 -28.3125 0.484375 -29.625 L -6.109375 -29.734375 C -6.671875 -29.734375 -6.992188 -29.835938 -7.078125 -30.046875 C -7.160156 -30.265625 -7.097656 -30.488281 -6.890625 -30.71875 C -6.691406 -30.945312 -6.429688 -31.078125 -6.109375 -31.109375 L 0.546875 -31.21875 L 0.96875 -37.609375 C 1.039062 -38.628906 1.125 -39.675781 1.21875 -40.75 C 1.21875 -41.300781 1.234375 -41.859375 1.265625 -42.421875 C 1.265625 -43.253906 1.460938 -44.03125 1.859375 -44.75 C 2.328125 -45.375 2.90625 -45.609375 3.59375 -45.453125 C 4.1875 -45.253906 4.519531 -44.835938 4.59375 -44.203125 C 4.664062 -43.171875 4.703125 -42.132812 4.703125 -41.09375 C 4.703125 -40.5 4.703125 -39.90625 4.703125 -39.3125 C 4.703125 -38.644531 4.703125 -37.976562 4.703125 -37.3125 L 4.546875 -31.28125 Z M 13.28125 -31.40625" transform="translate(230.371 211.786)"/></g></g></g><g><g><g><path d="M 8 -9.84375 C 8.613281 -9.050781 9.007812 -8.226562 9.1875 -7.375 C 9.375 -6.53125 9.441406 -5.613281 9.390625 -4.625 C 9.347656 -3.632812 9.03125 -2.75 8.4375 -1.96875 C 7.84375 -1.195312 6.851562 -0.726562 5.46875 -0.5625 C 4.070312 -0.457031 2.828125 -0.671875 1.734375 -1.203125 C 0.648438 -1.734375 -0.03125 -2.503906 -0.3125 -3.515625 C -0.59375 -4.523438 -0.253906 -5.707031 0.703125 -7.0625 C 1.335938 -7.820312 2.09375 -8.476562 2.96875 -9.03125 C 3.28125 -9.226562 3.597656 -9.445312 3.921875 -9.6875 C 2.859375 -10.84375 1.847656 -12.023438 0.890625 -13.234375 C -0.0664062 -14.441406 -0.679688 -15.519531 -0.953125 -16.46875 C -1.234375 -17.570312 -1.046875 -18.609375 -0.390625 -19.578125 C 0.265625 -20.554688 1.40625 -21.128906 3.03125 -21.296875 C 3.820312 -21.367188 4.5625 -21.328125 5.25 -21.171875 C 5.945312 -21.015625 6.597656 -20.675781 7.203125 -20.15625 C 7.328125 -20.03125 7.414062 -19.890625 7.46875 -19.734375 C 7.519531 -19.578125 7.492188 -19.382812 7.390625 -19.15625 C 7.191406 -18.789062 6.894531 -18.609375 6.5 -18.609375 C 6.207031 -18.609375 5.925781 -18.644531 5.65625 -18.71875 C 5.363281 -18.84375 5.101562 -18.960938 4.875 -19.078125 C 4.707031 -19.160156 4.550781 -19.238281 4.40625 -19.3125 C 3.882812 -19.507812 3.484375 -19.484375 3.203125 -19.234375 C 2.921875 -18.984375 2.78125 -18.597656 2.78125 -18.078125 C 2.820312 -17.148438 3.203125 -16.160156 3.921875 -15.109375 C 4.640625 -14.066406 5.351562 -13.109375 6.0625 -12.234375 C 6.351562 -11.921875 6.597656 -11.617188 6.796875 -11.328125 C 6.992188 -11.128906 7.394531 -10.632812 8 -9.84375 Z M 4.328125 -2.59375 C 4.847656 -2.632812 5.1875 -2.925781 5.34375 -3.46875 C 5.507812 -4.007812 5.570312 -4.601562 5.53125 -5.25 C 5.488281 -5.894531 5.445312 -6.378906 5.40625 -6.703125 C 5.332031 -6.898438 5.207031 -7.023438 5.03125 -7.078125 C 4.851562 -7.140625 4.679688 -7.132812 4.515625 -7.0625 C 3.921875 -6.59375 3.484375 -5.992188 3.203125 -5.265625 C 2.921875 -4.546875 2.945312 -3.914062 3.28125 -3.375 C 3.382812 -3.175781 3.523438 -3.003906 3.703125 -2.859375 C 3.890625 -2.722656 4.097656 -2.632812 4.328125 -2.59375 Z M 4.328125 -2.59375" transform="translate(240.19 211.786)"/></g></g></g><g><g><g><path d="M 6.0625 -4.875 C 4.46875 -4.90625 3.175781 -5.613281 2.1875 -7 C 1.195312 -8.394531 0.578125 -10.148438 0.328125 -12.265625 C 0.078125 -14.390625 0.285156 -16.5625 0.953125 -18.78125 C 1.109375 -19.457031 1.546875 -19.953125 2.265625 -20.265625 C 2.773438 -20.421875 3.300781 -20.390625 3.84375 -20.171875 C 4.382812 -19.960938 4.671875 -19.597656 4.703125 -19.078125 C 4.703125 -18.609375 4.660156 -18.140625 4.578125 -17.671875 C 4.503906 -17.304688 4.445312 -16.960938 4.40625 -16.640625 C 4.320312 -15.335938 4.347656 -13.910156 4.484375 -12.359375 C 4.628906 -10.804688 5.035156 -9.472656 5.703125 -8.359375 C 6.390625 -7.492188 7.144531 -7.390625 7.96875 -8.046875 C 8.800781 -8.703125 9.535156 -9.726562 10.171875 -11.125 C 10.660156 -12.21875 11.039062 -13.3125 11.3125 -14.40625 C 11.582031 -15.5 11.757812 -16.34375 11.84375 -16.9375 C 11.914062 -17.164062 11.953125 -17.328125 11.953125 -17.421875 C 12.078125 -17.890625 12.195312 -18.367188 12.3125 -18.859375 C 12.507812 -19.484375 12.707031 -20.113281 12.90625 -20.75 C 13.269531 -21.976562 14.144531 -22.492188 15.53125 -22.296875 C 16.351562 -22.222656 16.8125 -21.804688 16.90625 -21.046875 C 16.976562 -20.015625 17 -18.988281 16.96875 -17.96875 C 16.925781 -17.507812 16.90625 -17.066406 16.90625 -16.640625 C 16.78125 -14.816406 16.738281 -12.878906 16.78125 -10.828125 C 16.832031 -8.785156 17.171875 -7.097656 17.796875 -5.765625 C 17.867188 -5.597656 17.894531 -5.359375 17.875 -5.046875 C 17.863281 -4.734375 17.765625 -4.425781 17.578125 -4.125 C 17.398438 -3.820312 17.113281 -3.640625 16.71875 -3.578125 C 16.320312 -3.515625 15.789062 -3.679688 15.125 -4.078125 C 14.132812 -4.710938 13.5 -5.578125 13.21875 -6.671875 C 12.9375 -7.765625 12.796875 -8.820312 12.796875 -9.84375 C 12.765625 -10.4375 12.726562 -10.960938 12.6875 -11.421875 C 12.320312 -9.347656 11.503906 -7.742188 10.234375 -6.609375 C 8.960938 -5.484375 7.570312 -4.90625 6.0625 -4.875 Z M 6.0625 -4.875" transform="translate(252.037 211.786)"/></g></g></g><g><g><g><path d="M 7.578125 0 L 6.453125 0 L 4.890625 -5.09375 L 3.328125 0 L 2.1875 0 L 0.03125 -6.53125 L 1.21875 -6.53125 L 2.796875 -1.21875 L 4.375 -6.515625 L 5.453125 -6.53125 L 7.046875 -1.21875 L 8.625 -6.53125 L 9.75 -6.53125 Z M 7.578125 0" transform="translate(196.672 167.001)"/></g></g></g><g><g><g><path d="M 5.515625 -5.546875 L 1.953125 -5.546875 L 1.953125 -3.78125 L 5.15625 -3.78125 L 5.15625 -2.796875 L 1.953125 -2.796875 L 1.953125 -0.984375 L 5.640625 -0.984375 L 5.640625 0 L 0.859375 0 L 0.859375 -6.53125 L 5.515625 -6.53125 Z M 5.515625 -5.546875" transform="translate(207.498 167.001)"/></g></g></g><g><g><g><path d="M 0.859375 -6.53125 L 3.6875 -6.53125 C 4.363281 -6.53125 4.898438 -6.382812 5.296875 -6.09375 C 5.691406 -5.800781 5.890625 -5.398438 5.890625 -4.890625 C 5.890625 -4.523438 5.785156 -4.210938 5.578125 -3.953125 C 5.367188 -3.703125 5.085938 -3.53125 4.734375 -3.4375 C 5.171875 -3.363281 5.515625 -3.179688 5.765625 -2.890625 C 6.015625 -2.597656 6.140625 -2.234375 6.140625 -1.796875 C 6.140625 -1.234375 5.925781 -0.789062 5.5 -0.46875 C 5.082031 -0.15625 4.503906 0 3.765625 0 L 0.859375 0 Z M 1.953125 -5.546875 L 1.953125 -3.828125 L 3.640625 -3.828125 C 3.984375 -3.828125 4.253906 -3.90625 4.453125 -4.0625 C 4.648438 -4.21875 4.75 -4.429688 4.75 -4.703125 C 4.75 -4.972656 4.648438 -5.179688 4.453125 -5.328125 C 4.265625 -5.472656 3.992188 -5.546875 3.640625 -5.546875 Z M 1.953125 -2.859375 L 1.953125 -0.984375 L 3.640625 -0.984375 C 4.078125 -0.984375 4.414062 -1.0625 4.65625 -1.21875 C 4.894531 -1.382812 5.015625 -1.625 5.015625 -1.9375 C 5.015625 -2.21875 4.890625 -2.441406 4.640625 -2.609375 C 4.398438 -2.773438 4.066406 -2.859375 3.640625 -2.859375 Z M 1.953125 -2.859375" transform="translate(214.78 167.001)"/></g></g></g><g><g><g><path d="M 0.859375 -6.53125 L 3.53125 -6.53125 C 4.507812 -6.53125 5.316406 -6.222656 5.953125 -5.609375 C 6.585938 -4.992188 6.90625 -4.210938 6.90625 -3.265625 C 6.90625 -2.316406 6.582031 -1.535156 5.9375 -0.921875 C 5.300781 -0.304688 4.488281 0 3.5 0 L 0.859375 0 Z M 1.953125 -5.546875 L 1.953125 -0.984375 L 3.5625 -0.984375 C 4.207031 -0.984375 4.738281 -1.195312 5.15625 -1.625 C 5.582031 -2.050781 5.796875 -2.59375 5.796875 -3.25 C 5.796875 -3.914062 5.578125 -4.460938 5.140625 -4.890625 C 4.703125 -5.328125 4.160156 -5.546875 3.515625 -5.546875 Z M 1.953125 -5.546875" transform="translate(226.1 167.001)"/></g></g></g><g><g><g><path d="M 5.515625 -5.546875 L 1.953125 -5.546875 L 1.953125 -3.78125 L 5.15625 -3.78125 L 5.15625 -2.796875 L 1.953125 -2.796875 L 1.953125 -0.984375 L 5.640625 -0.984375 L 5.640625 0 L 0.859375 0 L 0.859375 -6.53125 L 5.515625 -6.53125 Z M 5.515625 -5.546875" transform="translate(234.492 167.001)"/></g></g></g><g><g><g><path d="M 3 -6.578125 C 3.84375 -6.578125 4.601562 -6.351562 5.28125 -5.90625 L 4.828125 -4.9375 C 4.160156 -5.34375 3.523438 -5.546875 2.921875 -5.546875 C 2.585938 -5.546875 2.328125 -5.484375 2.140625 -5.359375 C 1.953125 -5.242188 1.859375 -5.078125 1.859375 -4.859375 C 1.859375 -4.640625 1.941406 -4.453125 2.109375 -4.296875 C 2.285156 -4.148438 2.503906 -4.039062 2.765625 -3.96875 C 3.023438 -3.894531 3.304688 -3.800781 3.609375 -3.6875 C 3.921875 -3.582031 4.207031 -3.46875 4.46875 -3.34375 C 4.726562 -3.226562 4.941406 -3.039062 5.109375 -2.78125 C 5.285156 -2.519531 5.375 -2.207031 5.375 -1.84375 C 5.375 -1.269531 5.144531 -0.8125 4.6875 -0.46875 C 4.226562 -0.132812 3.632812 0.03125 2.90625 0.03125 C 2.414062 0.03125 1.9375 -0.0546875 1.46875 -0.234375 C 1 -0.421875 0.59375 -0.675781 0.25 -1 L 0.71875 -1.953125 C 1.050781 -1.648438 1.410156 -1.414062 1.796875 -1.25 C 2.191406 -1.082031 2.566406 -1 2.921875 -1 C 3.304688 -1 3.609375 -1.066406 3.828125 -1.203125 C 4.046875 -1.347656 4.15625 -1.546875 4.15625 -1.796875 C 4.15625 -2.015625 4.066406 -2.195312 3.890625 -2.34375 C 3.710938 -2.5 3.492188 -2.613281 3.234375 -2.6875 C 2.972656 -2.757812 2.691406 -2.847656 2.390625 -2.953125 C 2.085938 -3.054688 1.800781 -3.164062 1.53125 -3.28125 C 1.269531 -3.394531 1.050781 -3.578125 0.875 -3.828125 C 0.707031 -4.085938 0.625 -4.394531 0.625 -4.75 C 0.625 -5.3125 0.84375 -5.753906 1.28125 -6.078125 C 1.71875 -6.410156 2.289062 -6.578125 3 -6.578125 Z M 3 -6.578125" transform="translate(241.774 167.001)"/></g></g></g><g><g><g><path d="M 1.953125 0 L 0.859375 0 L 0.859375 -6.53125 L 1.953125 -6.53125 Z M 1.953125 0" transform="translate(248.74 167.001)"/></g></g></g><g><g><g><path d="M 5.328125 -3.203125 L 6.28125 -3.203125 L 6.28125 -0.796875 C 5.945312 -0.546875 5.550781 -0.34375 5.09375 -0.1875 C 4.632812 -0.03125 4.1875 0.046875 3.75 0.046875 C 2.78125 0.046875 1.960938 -0.269531 1.296875 -0.90625 C 0.640625 -1.539062 0.3125 -2.328125 0.3125 -3.265625 C 0.3125 -4.203125 0.644531 -4.984375 1.3125 -5.609375 C 1.988281 -6.242188 2.820312 -6.5625 3.8125 -6.5625 C 4.269531 -6.5625 4.722656 -6.476562 5.171875 -6.3125 C 5.617188 -6.144531 6.003906 -5.921875 6.328125 -5.640625 L 5.703125 -4.828125 C 5.160156 -5.328125 4.53125 -5.578125 3.8125 -5.578125 C 3.144531 -5.578125 2.582031 -5.351562 2.125 -4.90625 C 1.664062 -4.457031 1.4375 -3.910156 1.4375 -3.265625 C 1.4375 -2.609375 1.664062 -2.054688 2.125 -1.609375 C 2.59375 -1.160156 3.160156 -0.9375 3.828125 -0.9375 C 4.328125 -0.9375 4.828125 -1.085938 5.328125 -1.390625 Z M 5.328125 -3.203125" transform="translate(252.722 167.001)"/></g></g></g><g><g><g><path d="M 6.515625 0 L 5.4375 0 L 1.953125 -4.6875 L 1.953125 0 L 0.859375 0 L 0.859375 -6.53125 L 1.9375 -6.53125 L 5.4375 -1.84375 L 5.4375 -6.53125 L 6.515625 -6.53125 Z M 6.515625 0" transform="translate(260.871 167.001)"/></g></g></g><g><g><g><path d="M 5.515625 -5.546875 L 1.953125 -5.546875 L 1.953125 -3.78125 L 5.15625 -3.78125 L 5.15625 -2.796875 L 1.953125 -2.796875 L 1.953125 -0.984375 L 5.640625 -0.984375 L 5.640625 0 L 0.859375 0 L 0.859375 -6.53125 L 5.515625 -6.53125 Z M 5.515625 -5.546875" transform="translate(269.421 167.001)"/></g></g></g><g><g><g><path d="M 5 0 L 3.8125 -1.984375 C 3.75 -1.972656 3.644531 -1.96875 3.5 -1.96875 L 1.953125 -1.96875 L 1.953125 0 L 0.859375 0 L 0.859375 -6.53125 L 3.5 -6.53125 C 4.332031 -6.53125 4.976562 -6.332031 5.4375 -5.9375 C 5.90625 -5.550781 6.140625 -5.003906 6.140625 -4.296875 C 6.140625 -3.773438 6.019531 -3.332031 5.78125 -2.96875 C 5.550781 -2.613281 5.21875 -2.351562 4.78125 -2.1875 L 6.25 0 Z M 1.953125 -2.953125 L 3.5 -2.953125 C 4.5625 -2.953125 5.09375 -3.390625 5.09375 -4.265625 C 5.09375 -5.117188 4.5625 -5.546875 3.5 -5.546875 L 1.953125 -5.546875 Z M 1.953125 -2.953125" transform="translate(276.704 167.001)"/></g></g></g></svg>